<mxfile host="app.diagrams.net" modified="2023-05-29T07:11:32.341Z" agent="Mozilla/5.0 (Windows NT 10.0; Win64; x64) AppleWebKit/537.36 (KHTML, like Gecko) Chrome/112.0.0.0 Safari/537.36 OPR/98.0.0.0" etag="jUkaIMj4mjHGDvk30RC0" version="21.3.5" type="device" pages="2">
  <diagram name="Page-1" id="qrpLFlRsGZqDi6FHed2L">
    <mxGraphModel dx="790" dy="440" grid="0" gridSize="10" guides="1" tooltips="1" connect="1" arrows="1" fold="1" page="1" pageScale="1" pageWidth="827" pageHeight="1169" background="#ffffff" math="0" shadow="0">
      <root>
        <mxCell id="0" />
        <mxCell id="1" parent="0" />
        <mxCell id="_r7byrhbNO5gASwCjzYp-1" value="&lt;font style=&quot;font-size: 12px;&quot; color=&quot;#000000&quot;&gt;Divizor de frecventa&lt;/font&gt;" style="rounded=0;whiteSpace=wrap;html=1;fillColor=none;strokeColor=#000000;fontSize=24;" vertex="1" parent="1">
          <mxGeometry x="262" y="326" width="236" height="75" as="geometry" />
        </mxCell>
        <mxCell id="_r7byrhbNO5gASwCjzYp-2" value="" style="endArrow=classic;html=1;rounded=0;strokeColor=#000000;entryX=-0.006;entryY=0.385;entryDx=0;entryDy=0;entryPerimeter=0;" edge="1" parent="1" target="_r7byrhbNO5gASwCjzYp-1">
          <mxGeometry width="50" height="50" relative="1" as="geometry">
            <mxPoint x="169" y="355" as="sourcePoint" />
            <mxPoint x="253" y="355" as="targetPoint" />
          </mxGeometry>
        </mxCell>
        <mxCell id="_r7byrhbNO5gASwCjzYp-3" value="" style="endArrow=classic;html=1;rounded=0;strokeColor=#000000;" edge="1" parent="1">
          <mxGeometry width="50" height="50" relative="1" as="geometry">
            <mxPoint x="498" y="350" as="sourcePoint" />
            <mxPoint x="573" y="349" as="targetPoint" />
          </mxGeometry>
        </mxCell>
        <mxCell id="_r7byrhbNO5gASwCjzYp-4" value="&lt;font color=&quot;#000000&quot;&gt;CLK100M&lt;/font&gt;" style="text;html=1;strokeColor=none;fillColor=none;align=center;verticalAlign=middle;whiteSpace=wrap;rounded=0;" vertex="1" parent="1">
          <mxGeometry x="262" y="340" width="60" height="30" as="geometry" />
        </mxCell>
        <mxCell id="_r7byrhbNO5gASwCjzYp-5" value="&lt;font color=&quot;#000000&quot;&gt;CLK1S&lt;/font&gt;" style="text;html=1;strokeColor=none;fillColor=none;align=center;verticalAlign=middle;whiteSpace=wrap;rounded=0;" vertex="1" parent="1">
          <mxGeometry x="441" y="335" width="60" height="30" as="geometry" />
        </mxCell>
      </root>
    </mxGraphModel>
  </diagram>
  <diagram id="wkvQaU80rDM4mAZmatkD" name="Page-2">
    <mxGraphModel dx="1153" dy="642" grid="0" gridSize="10" guides="1" tooltips="1" connect="1" arrows="1" fold="1" page="1" pageScale="1" pageWidth="827" pageHeight="1169" background="#ffffff" math="0" shadow="0">
      <root>
        <mxCell id="0" />
        <mxCell id="1" parent="0" />
        <mxCell id="-fSlUvUVZeuG0hGnpvkm-1" value="&lt;font style=&quot;font-size: 16px;&quot; color=&quot;#000000&quot;&gt;Afisor_anozi_catozi&lt;/font&gt;" style="rounded=0;whiteSpace=wrap;html=1;fillColor=none;strokeColor=#000000;fontSize=22;" vertex="1" parent="1">
          <mxGeometry x="240" y="160" width="240" height="80" as="geometry" />
        </mxCell>
        <mxCell id="-fSlUvUVZeuG0hGnpvkm-2" value="" style="endArrow=classic;html=1;rounded=0;strokeColor=#000000;" edge="1" parent="1">
          <mxGeometry width="50" height="50" relative="1" as="geometry">
            <mxPoint x="167" y="223" as="sourcePoint" />
            <mxPoint x="240" y="223" as="targetPoint" />
          </mxGeometry>
        </mxCell>
        <mxCell id="-fSlUvUVZeuG0hGnpvkm-4" value="" style="endArrow=classic;html=1;rounded=0;strokeColor=#000000;" edge="1" parent="1">
          <mxGeometry width="50" height="50" relative="1" as="geometry">
            <mxPoint x="480" y="182" as="sourcePoint" />
            <mxPoint x="550" y="182" as="targetPoint" />
          </mxGeometry>
        </mxCell>
        <mxCell id="-fSlUvUVZeuG0hGnpvkm-5" value="" style="endArrow=none;html=1;rounded=0;fontColor=#000000;strokeColor=#000000;" edge="1" parent="1">
          <mxGeometry width="50" height="50" relative="1" as="geometry">
            <mxPoint x="205" y="229" as="sourcePoint" />
            <mxPoint x="189" y="219" as="targetPoint" />
          </mxGeometry>
        </mxCell>
        <mxCell id="-fSlUvUVZeuG0hGnpvkm-6" value="" style="endArrow=classic;html=1;rounded=0;strokeColor=#000000;exitX=1.004;exitY=0.677;exitDx=0;exitDy=0;exitPerimeter=0;" edge="1" parent="1" source="-fSlUvUVZeuG0hGnpvkm-1">
          <mxGeometry width="50" height="50" relative="1" as="geometry">
            <mxPoint x="449" y="346" as="sourcePoint" />
            <mxPoint x="551" y="214" as="targetPoint" />
          </mxGeometry>
        </mxCell>
        <mxCell id="-fSlUvUVZeuG0hGnpvkm-7" value="" style="endArrow=none;html=1;rounded=0;strokeColor=#000000;" edge="1" parent="1">
          <mxGeometry width="50" height="50" relative="1" as="geometry">
            <mxPoint x="515" y="191" as="sourcePoint" />
            <mxPoint x="500" y="174" as="targetPoint" />
          </mxGeometry>
        </mxCell>
        <mxCell id="-fSlUvUVZeuG0hGnpvkm-8" value="" style="endArrow=none;html=1;rounded=0;strokeColor=#000000;" edge="1" parent="1">
          <mxGeometry width="50" height="50" relative="1" as="geometry">
            <mxPoint x="518" y="224" as="sourcePoint" />
            <mxPoint x="501" y="204" as="targetPoint" />
          </mxGeometry>
        </mxCell>
        <mxCell id="-fSlUvUVZeuG0hGnpvkm-9" value="" style="endArrow=classic;html=1;rounded=0;strokeColor=#000000;" edge="1" parent="1">
          <mxGeometry width="50" height="50" relative="1" as="geometry">
            <mxPoint x="167" y="205" as="sourcePoint" />
            <mxPoint x="240" y="205" as="targetPoint" />
          </mxGeometry>
        </mxCell>
        <mxCell id="-fSlUvUVZeuG0hGnpvkm-10" value="" style="endArrow=none;html=1;rounded=0;fontColor=#000000;strokeColor=#000000;" edge="1" parent="1" source="-fSlUvUVZeuG0hGnpvkm-20">
          <mxGeometry width="50" height="50" relative="1" as="geometry">
            <mxPoint x="205" y="211" as="sourcePoint" />
            <mxPoint x="189" y="201" as="targetPoint" />
          </mxGeometry>
        </mxCell>
        <mxCell id="-fSlUvUVZeuG0hGnpvkm-11" value="" style="endArrow=classic;html=1;rounded=0;strokeColor=#000000;" edge="1" parent="1">
          <mxGeometry width="50" height="50" relative="1" as="geometry">
            <mxPoint x="167" y="188" as="sourcePoint" />
            <mxPoint x="240" y="188" as="targetPoint" />
          </mxGeometry>
        </mxCell>
        <mxCell id="-fSlUvUVZeuG0hGnpvkm-12" value="" style="endArrow=classic;html=1;rounded=0;strokeColor=#000000;" edge="1" parent="1">
          <mxGeometry width="50" height="50" relative="1" as="geometry">
            <mxPoint x="167" y="174" as="sourcePoint" />
            <mxPoint x="240" y="174" as="targetPoint" />
          </mxGeometry>
        </mxCell>
        <mxCell id="-fSlUvUVZeuG0hGnpvkm-14" value="&lt;font color=&quot;#000000&quot;&gt;Anozi&lt;br&gt;&lt;/font&gt;" style="text;html=1;strokeColor=none;fillColor=none;align=center;verticalAlign=middle;whiteSpace=wrap;rounded=0;" vertex="1" parent="1">
          <mxGeometry x="494" y="152" width="60" height="30" as="geometry" />
        </mxCell>
        <mxCell id="-fSlUvUVZeuG0hGnpvkm-15" value="&lt;font color=&quot;#000000&quot;&gt;Catozi&lt;br&gt;&lt;/font&gt;" style="text;html=1;strokeColor=none;fillColor=none;align=center;verticalAlign=middle;whiteSpace=wrap;rounded=0;" vertex="1" parent="1">
          <mxGeometry x="494" y="188" width="60" height="30" as="geometry" />
        </mxCell>
        <mxCell id="-fSlUvUVZeuG0hGnpvkm-16" value="&lt;font color=&quot;#000000&quot;&gt;CLK&lt;br&gt;&lt;/font&gt;" style="text;html=1;strokeColor=none;fillColor=none;align=center;verticalAlign=middle;whiteSpace=wrap;rounded=0;" vertex="1" parent="1">
          <mxGeometry x="175" y="148" width="60" height="30" as="geometry" />
        </mxCell>
        <mxCell id="-fSlUvUVZeuG0hGnpvkm-17" value="&lt;font color=&quot;#000000&quot;&gt;Reset&lt;br&gt;&lt;/font&gt;" style="text;html=1;strokeColor=none;fillColor=none;align=center;verticalAlign=middle;whiteSpace=wrap;rounded=0;" vertex="1" parent="1">
          <mxGeometry x="180" y="167" width="60" height="30" as="geometry" />
        </mxCell>
        <mxCell id="-fSlUvUVZeuG0hGnpvkm-18" value="&lt;font color=&quot;#000000&quot;&gt;C1&lt;br&gt;&lt;/font&gt;" style="text;html=1;strokeColor=none;fillColor=none;align=center;verticalAlign=middle;whiteSpace=wrap;rounded=0;" vertex="1" parent="1">
          <mxGeometry x="191.5" y="188" width="37" height="18" as="geometry" />
        </mxCell>
        <mxCell id="-fSlUvUVZeuG0hGnpvkm-19" value="&lt;font color=&quot;#000000&quot;&gt;C2&lt;br&gt;&lt;/font&gt;" style="text;html=1;strokeColor=none;fillColor=none;align=center;verticalAlign=middle;whiteSpace=wrap;rounded=0;" vertex="1" parent="1">
          <mxGeometry x="191.5" y="208" width="39" height="16" as="geometry" />
        </mxCell>
        <mxCell id="-fSlUvUVZeuG0hGnpvkm-21" value="" style="endArrow=none;html=1;rounded=0;fontColor=#000000;strokeColor=#000000;" edge="1" parent="1" target="-fSlUvUVZeuG0hGnpvkm-20">
          <mxGeometry width="50" height="50" relative="1" as="geometry">
            <mxPoint x="205" y="211" as="sourcePoint" />
            <mxPoint x="189" y="201" as="targetPoint" />
          </mxGeometry>
        </mxCell>
        <mxCell id="-fSlUvUVZeuG0hGnpvkm-20" value="&lt;font color=&quot;#000000&quot;&gt;4&lt;br&gt;&lt;/font&gt;" style="text;html=1;strokeColor=none;fillColor=none;align=center;verticalAlign=middle;whiteSpace=wrap;rounded=0;" vertex="1" parent="1">
          <mxGeometry x="175" y="192" width="25" height="10" as="geometry" />
        </mxCell>
        <mxCell id="-fSlUvUVZeuG0hGnpvkm-22" value="&lt;font color=&quot;#000000&quot;&gt;4&lt;br&gt;&lt;/font&gt;" style="text;html=1;strokeColor=none;fillColor=none;align=center;verticalAlign=middle;whiteSpace=wrap;rounded=0;" vertex="1" parent="1">
          <mxGeometry x="175" y="208" width="25" height="10" as="geometry" />
        </mxCell>
      </root>
    </mxGraphModel>
  </diagram>
</mxfile>
